<svg width="36" height="36" viewBox="0 0 36 36" fill="none" xmlns="http://www.w3.org/2000/svg">
    <path d="M7.36094 15.6394C10.148 21.1169 14.6384 25.6072 20.1158 28.3943L24.3738 24.1362C24.9158 23.5943 25.6706 23.4394 26.348 23.6523C28.5158 24.3685 30.8384 24.7556 33.2577 24.7556C33.771 24.7556 34.2633 24.9595 34.6263 25.3225C34.9893 25.6854 35.1932 26.1777 35.1932 26.691V33.4652C35.1932 33.9786 34.9893 34.4709 34.6263 34.8338C34.2633 35.1968 33.771 35.4007 33.2577 35.4007C24.5312 35.4007 16.1622 31.9341 9.99162 25.7636C3.82107 19.593 0.354492 11.224 0.354492 2.4975C0.354492 1.98417 0.558409 1.49188 0.921382 1.1289C1.28436 0.765928 1.77665 0.562012 2.28998 0.562012H9.06417C9.57749 0.562012 10.0698 0.765928 10.4328 1.1289C10.7957 1.49188 10.9997 1.98417 10.9997 2.4975C10.9997 4.91685 11.3868 7.23943 12.1029 9.40717C12.3158 10.0846 12.1609 10.8394 11.619 11.3814L7.36094 15.6394Z" fill="white"/>
    </svg>
    