<svg width="29" height="42" viewBox="0 0 29 42" fill="none" xmlns="http://www.w3.org/2000/svg">
    <path d="M14.5 19.95C13.1266 19.95 11.8094 19.3969 10.8382 18.4123C9.86703 17.4277 9.32143 16.0924 9.32143 14.7C9.32143 13.3076 9.86703 11.9723 10.8382 10.9877C11.8094 10.0031 13.1266 9.45 14.5 9.45C15.8734 9.45 17.1906 10.0031 18.1618 10.9877C19.133 11.9723 19.6786 13.3076 19.6786 14.7C19.6786 15.3894 19.5446 16.0721 19.2844 16.7091C19.0241 17.346 18.6427 17.9248 18.1618 18.4123C17.6809 18.8998 17.11 19.2865 16.4818 19.5504C15.8535 19.8142 15.1801 19.95 14.5 19.95ZM14.5 0C10.6544 0 6.96623 1.54875 4.24695 4.30553C1.52767 7.06231 0 10.8013 0 14.7C0 25.725 14.5 42 14.5 42C14.5 42 29 25.725 29 14.7C29 10.8013 27.4723 7.06231 24.753 4.30553C22.0338 1.54875 18.3456 0 14.5 0Z" fill="white"/>
    </svg>
    