<svg xmlns="http://www.w3.org/2000/svg" viewBox="0 0 476.35 536.9"><defs><style>.cls-1,.cls-2{fill:#1b1500;}.cls-2{stroke:#df2200;stroke-miterlimit:10;stroke-width:3px;}.cls-3{fill:#ffdb00;}.cls-4{font-size:52.13px;font-family:PalatinoLinotype-Bold, Palatino Linotype;font-weight:700;}.cls-4,.cls-5{fill:#fff;}.cls-5{font-size:24px;font-family:PalatinoLinotype-Roman, Palatino Linotype;}</style></defs><g id="Layer_2" data-name="Layer 2"><g id="Layer_4" data-name="Layer 4"><path class="cls-1" d="M17.85,55.84S70,130.08,1.28,291.46c0,0-29.45,192.67,193.9,214.76,0,0,31.66,3.07,41.6,30.68,0,0,2.58-20.25,29.58-29.45,0,0,224.58-3.68,209.24-220.28,0,0-63.2-139.36-20.25-231.33,0,0-31.3,13.5-70-55.84,0,0-65,71.18-147.23,3.07,0,0-73.67,69.33-149.76-3.07C88.41,0,65.71,66.88,17.85,55.84Z"/><path class="cls-2" d="M49.51,86.39S94.17,150,35.32,288.15c0,0-25.22,165,166,183.91,0,0,27.11,2.62,35.62,26.27,0,0,2.21-17.34,25.33-25.22,0,0,192.31-3.16,179.17-188.63,0,0-54.12-119.34-17.34-198.09,0,0-26.79,11.56-59.9-47.82,0,0-55.62,61-126.07,2.63,0,0-63.08,59.37-128.24-2.63C109.93,38.57,90.49,95.85,49.51,86.39Z"/></g><g id="Layer_3" data-name="Layer 3"><path class="cls-3" d="M167.49,286.21c1.36,2.39,2.84,4.82,5.1,6.37a16.2,16.2,0,0,0,7.21,2.33,51.88,51.88,0,0,0,23.9-2.49c3.66-1.29,7.22-3,11.06-3.49s8.18.51,10.43,3.67c2.75,3.87-.17,9.76-2.11,13.76-1.41,2.91-4.37,9-10.85,12.53-4.09,2.2-8,2.52-8.31,4.74-.17,1.39,1.17,2.93,2.14,4,1.93,2.21,3.45,2.31,3.56,3.56.08.93-.72,1.49-2.85,3.79-1.39,1.5-2.44,2.77-3.09,3.56a39.06,39.06,0,0,0,5.21.86,46.44,46.44,0,0,0,8.8-.14c8.09-.63,12.17-.94,13.29-.24,4.05,2.54,3.22,7.95,6.88,8.78a5.66,5.66,0,0,0,5-1.66c2.09-2.19.66-4.87,2.38-6.88,1.4-1.65,3.87-1.61,7.59-1.43,12.25.59,17.49,1.65,18.28,0s-3.29-3.68-2.61-6.41c.77-3.11,6.69-2.89,7.12-5.45.31-1.89-2.58-3.86-6.41-6.41-6.93-4.62-8.32-3.63-10.92-6.41-3.42-3.67-3.84-8.42-4.26-13.31-.37-4.21-.91-9.12,1.72-10.63,2.93-1.68,6.53.16,9.5,1.76,12.92,7,30.25,9.35,41.37-.24,6.19-5.34,9.26-13.35,12.1-21a145,145,0,0,0,6.11-19.15c1.47-6.74,2-13.64,2.71-20.5A314.86,314.86,0,0,1,337.28,179c-3.31-1.28-5.78,3-7.53,6.09A20.77,20.77,0,0,1,316.31,195c-2.14-6.62,4.13-12.59,8.66-17.88,5.53-6.47,9.22-15,8.18-23.41-4.56.12-8.16,3.73-11.24,7.1l-29.83,32.55c-8.53,9.31-18.79,19.38-31.41,18.84-1.32-.06-2.8-.32-3.59-1.4a5.25,5.25,0,0,1-.68-2.94c-.28-6.32-1.93-12.77-5.87-17.71s-10.48-8.09-16.68-6.89-11.36,7.46-10.3,13.69c5.34,1.7,7.46,9.49,3.73,13.67s-13.94,2-17.88,1.05c-15.26-3.81-25.31-14.58-31.11-21a148,148,0,0,1-13.06-17.08c-3.59-5.45-8.4-10.2-11.06-16.16-1.06-2.38-2.69-6.56-6.1-7.33-.22-.05-2.56-.55-3.73.72s-.59,4,3.33,13c2.29,5.27,4.25,9.37,5,10.92,1.55,3.29,3.73,8.06,6.17,14a63.33,63.33,0,0,1-8.55-5A62.4,62.4,0,0,1,141,176a10.18,10.18,0,0,0-1.94,5.1c-.27,3.58,1.75,6.3,3.84,9.17,6.53,9,10.22,14.12,9.49,14.95-1,1.11-9.09-6.15-11.39-4.27-1.49,1.21.41,5.41,2.37,11.63s.49,3.32,4.37,19.07C147.77,231.63,151.33,257.75,167.49,286.21Z"/><text class="cls-4" transform="translate(168.83 136.44)">IBSM</text><text class="cls-5" transform="translate(177.9 381.44)">ESTD. 2021</text><path class="cls-3" d="M61.65,337.12l-.28.07c-.82-2.56-3-1-4.57-.66l-.11,0c-12-19.53,12.59-22.35,11.62-2.78-.37-.05-2,.17-3.19.26-.06-.17-.11-.34-.17-.51l0-.09c1-.34,1.87-.25,1.75-1.78.73-13.11-18.52-9.05-10.69,2.82A12.79,12.79,0,0,0,58.3,334c1.54-.23.92-.95.53-2.64l.05-.11.82-.18,0-.16C60.33,333.33,61,334.81,61.65,337.12Z"/><path class="cls-3" d="M69.47,335l.09.06a43.55,43.55,0,0,0,2.09,5.56l0,.09-.45.15.15.54a5.61,5.61,0,0,0-.84-1.59,5.33,5.33,0,0,1-1.93-.72c-.54.58-1.09,1.17-1.63,1.77-2,.78-5.79,1.25-7.57,1.89,1,2.29,1.5,5.41,2.81,6.75a15.12,15.12,0,0,0,2.24-.07c-.06.08.19.55.22.63l.08.06a25.19,25.19,0,0,0-3.22.72l-.11-.06c-1.14-2.88-3.2-7.86-4.31-11.21l.31-.07c.94,1.17.59,1,2.05.77,2.27-.51,4.65-1.22,6.62-1.75.87-.32,2.93-.64,3.42-1.18.18-.51-.31-1.3-.44-2.21Z"/><path class="cls-3" d="M68.41,350.38C76.24,347,85.28,362,77,365.43,68.6,370.09,58.81,353.07,68.41,350.38Zm1.6,1.94c-8,2-2.78,15.14,5.16,11.3C82.5,361.45,77.32,349.06,70,352.32Z"/><path class="cls-3" d="M82.67,363.85l.09,0,.43-.2,0-.08c1.33,2.73,3.76,5.2,5.09,8.13,1,3.49-3.66,4-6,1.09,4.54,6.56-4.73,7.77-8,1.77-.83-1.33-2-3.3-2.9-4.57l.29.33.29-.13c0-.13-.09-.26-.13-.4,1.16.95.69.48,2.36,0a8.81,8.81,0,0,1,2.62-.38c1.21-.56,4-1.85,5.11-2.42C82.19,365.13,84.29,366.26,82.67,363.85Zm-2.47,5.37c3.13,6.64,9.56,3.16,4.28-2C83.78,367.47,81.35,368.67,80.2,369.22Zm-6.28,3c2.93,7.61,11.72,3.83,5.57-2.65Z"/><path class="cls-3" d="M78.73,381.63v-.12l.46-.24.13,0c1,2,3.85.72,5.47.88,2.85-.21,8.57-.86,11.22-1.34l.87,1q-2.6,4.56-5,9.23c-.37,1.35-2.48,2.87-.75,4.48v.12l-.43.29-.14,0c-1.41-1.8-2.85-3.2-4.33-4.9V391l.44-.27.13,0c1,1.12,1.53,2,2.11.91l1.57-2.76c-1.61-1.87-3.17-3.78-4.69-5.71-1.25.44-6-.51-3.35,2.23v.12l-.45.26-.13,0C80.74,384.16,79.9,383.05,78.73,381.63Zm8.49,1.67c1.22,1.54,2.48,3.06,3.76,4.56q1.47-2.64,3-5.26Q90.63,383,87.22,383.3Z"/><path class="cls-3" d="M102,388.23c2.81,2.91,2.41,2.52,5.26,5.38l-.38.29c-.88-.48-1.4-1.73-2.3-1.23-1.12.27-1.45,2-1.78,2.75,0,0-3.35,2.51-3.36,2.5-2.66-.34-2.49.45-3.76,1.26,1.92,1.76,3.68,4.46,5.49,5.23a15.07,15.07,0,0,0,2.1-.84c0,.08.41.43.48.5l.1,0a24.24,24.24,0,0,0-2.76,1.81l-.13,0c-2.39-2.37-6.51-6.29-9-9.1l.26-.17c1.79,2.14,3.94-1.11,4.61-1.59,0,0,3.33-2.35,3.32-2.35,1.93-1.92,4.74-.76,1.51-4.16Z"/><path class="cls-3" d="M109.45,409.19h.14l.48.41,0,.12c-4.29,3.09,7.06,9.44,8.13,4.51.35-2.22-3.28-4.06-4.23-6.15-2.07-7.22,9.39-4.63,11.37.86a12.71,12.71,0,0,0-2.12,1.69h-.14l-.53-.39,0-.11c4.06-3.36-7.13-8.3-6.5-2.6.49,1.41,3.58,3.73,4.26,5,3,7.6-11,4.81-13.3-1.34C107.33,410.69,108.19,410.32,109.45,409.19Z"/><path class="cls-3" d="M126.67,409.89c4.36,3,6.64,4.67,10.33,6.81v.08a15.38,15.38,0,0,0-2.15,1.93v-.1l-1.3-.82,0-.11a6.2,6.2,0,0,0,.95-1.34,21.79,21.79,0,0,0-5.06-3.72l-1,1.08-.18,2.12-1.28,1.4a21.07,21.07,0,0,0,4,2.48c.48,0,.89-.6,1.23-.89l-.19.37c.16.09.31.19.46.29l.35-.26c-.81.88-1.95,2.2-2.69,3.15l.32-.52-.47-.3-.48.41c1.9-1.85-1.44-2.76-3.45-4.32-.45.37-3.44,3.64-3.59,3.86,1.85,1,4,3.34,6.33,4.06a17.7,17.7,0,0,0,1.83-1.15,2.68,2.68,0,0,1,.69.43,19.66,19.66,0,0,0-2.28,2.2h-.12c-2.64-1.76-7.31-4.77-10.22-6.9l.22-.22c1.69.46,1,.4,2.46-.79,1.75-1.6,2.8-2.71,4.13-4.15.65-.93,2.68-2.3,2.44-3.44-.31-.37-1.13-.93-1.49-1.31Z"/><path class="cls-3" d="M146.19,435.33l-.91.5c-23.13-5.37-6.67-23.91,6.71-9.56a10.3,10.3,0,0,0-1.86,1.91l-.12,0-.5-.25,0-.1.77-1.36c-10.51-12.78-23,6.08-4.12,8.59Z"/><path class="cls-3" d="M153.32,425.71h.11a51.63,51.63,0,0,0,5.78,2.67.41.41,0,0,0,0,.09l-.24.4.57.31a7,7,0,0,0-1.84-.6,5.48,5.48,0,0,1-2,.72c0,.78.07,1.57.12,2.36-.86,2-3.69,4.33-2.47,6.59,1.49,1.94,5.71,3.7,8.34,3.11,2.3-.78,3-3.78,4.09-5.54a4,4,0,0,1,.08-2.07c.8-1.62.82-1.58-1.24-2.45l.47.11.2-.39.12,0a38.53,38.53,0,0,0,4.74,1.82l.07.1-.2.39c-2.31-.68-2.15-.6-3.3.69l.33,2.31-1.14,2.25c-1.15,3.84-5.35,5.33-10.51,2.89-8.1-3.17-4.57-7.12-2-10.9.4-.81,1.75-2.38,1.71-3.1-.25-.49-1.24-.75-2-1.33Z"/><path class="cls-3" d="M171.28,433.73l.11,0c3.18,1.61,8.46,2,10.64,4.28,1.74,2.65-1.93,4.57-5.42,3.7.7,1.52,1.84,3.77,2.71,5.4.71,1.18.56,1.35,1.8,1.71l.07.09c-.07.2-.15.39-.22.59l-.14,0a30,30,0,0,0-3.21-.93c-1.13-2-2.77-5.83-4.06-8l.22-.21c7.21,3.05,8.62-4.36,1.14-4.66-.41.26-2.66,5.55-3.22,6.7a7.62,7.62,0,0,0-.94,3.37c.37.49,1.07.49,2,1l-.18.42-.12,0c-2.07-.74-3.33-1.19-6.59-2.26l-.06-.1.2-.41-.28-.16c1.22.3,1.85.85,2.46.24a15,15,0,0,1,1.33-.86l.82-1.74c.52-1.11,2-4.39,2.53-5.45-.64-1.87.66-2-1.95-2.81l.31,0Z"/><path class="cls-3" d="M186.73,438.07a58.32,58.32,0,0,0,6.28,1.58l.07.08-.14.43.37.15c-2.37-.72-2.05.19-3.51.88.22.77.45,1.53.68,2.3-.38,1.18-1.48,4.56-1.85,5.67-1.64,1.24-1.09,1.85,1.19,2.33l-.43,0c0,.14-.09.29-.14.43l-.11,0c-2.15-.57-3.44-.92-6.81-1.72l-.07-.09c.06-.15.11-.29.16-.43,2.89.66,3.18.33,2-1.42l2-1.46c.45-1.32.91-2.64,1.36-4a8.71,8.71,0,0,0,.7-3.42c-.36-.45-1.13-.41-2.05-.88.05-.14.11-.28.16-.43Z"/><path class="cls-3" d="M208.38,442.61l.09.09a26.05,26.05,0,0,0-.66,2.76,1.55,1.55,0,0,1-.05-.23l-.57-.09-.14.2c-.05-.53.23-1.57-.08-1.9a25.85,25.85,0,0,0-4.41-1.11c-.43,1.51-.65,2.26-1.1,2.39l-1.26,5.12c-.15.57-.29,1.14-.43,1.71a2.71,2.71,0,0,1,.2,1.38c0,.85.83.69,2.19,1.06,0,0-.13.45-.15.49l-.1,0c-4.59-.92-2.34-.5-6.93-1.31l-.08-.09.12-.44-.13-.08c2.67.64,2.8-.08,2-1.46l1.88-1.58q.66-2.55,1.31-5.1c-.49-.19-.32-1,0-2.59a25,25,0,0,0-4.67-.54,8.46,8.46,0,0,0-.85,1.66,1.89,1.89,0,0,1,0-.23l-.55-.12c0,.06-.1.13-.16.19.4-1.4.64-2.31.71-2.75l.13,0A130.82,130.82,0,0,0,208.38,442.61Z"/><path class="cls-3" d="M209,443.55l-.3-.12c0-.14.06-.27.08-.4s3.49.06,3.61,0c2,1.84,3.07,4.88,4.48,7.21,1.85-1.59,4.47-4.26,6.09-6a9.81,9.81,0,0,0,1.77.13l.09.08h0c-2.52,2.39-7.62,5.23-7.9,8.43l-.18,1.34a2,2,0,0,1,.37,1.14c.14.86.89.62,2.29.88a2.49,2.49,0,0,0-.08.5l-.11.06c-2.21-.27-3.58-.43-7-.75l-.09-.08.08-.45-.19-.07c2.37.33,3-.06,1.88-1.37l1.65-1.36c.08-.56.16-1.13.25-1.69a23.43,23.43,0,0,1-2.93-4C211.78,445.78,211.3,443.64,209,443.55Z"/><path class="cls-3" d="M231.58,454.52l.11-.07.68,0,.11.08c-.73,4.92,12.53,3,9.46-1.39-1.47-1.9-5.56-1.15-7.87-2.18-7.09-4.3,3.43-9.13,9.06-6.08a10,10,0,0,0-.27,2.54l-.12.08h-.68l-.11-.07c.45-5-11.63-2.13-6.8,1.87,1.44.79,5.51.73,7,1.27,8.11,4-4.28,10.18-10.8,6.89C231.2,456.93,231.54,456.14,231.58,454.52Z"/><path class="cls-3" d="M245.29,451.27c-1-8.13,17.76-10.41,18.88-2C266.67,458.1,245.14,460.63,245.29,451.27Zm2.58-.69c-.43,7.7,15.52,7.79,13.77-.4C261.6,443.07,246.8,443,247.87,450.58Z"/><path class="cls-3" d="M264.94,443.19l.08-.07a57.06,57.06,0,0,0,6.43-1l.1,0c0,.15.06.3.1.45a17.44,17.44,0,0,0-2.3.62A3.78,3.78,0,0,1,268,445c.58.61,1.16,1.22,1.76,1.83.45,2,1,5.51,1.54,7.24,2.71-.55,6.29-.49,7.95-1.46a11,11,0,0,0,.15-2.05,2.4,2.4,0,0,0,.74-.1l.08-.06a17.36,17.36,0,0,0,.5,3l-.08.09c-3.52.59-9.45,1.69-13.46,2.17l-.05-.29c2.85-.34.68-3.58.63-4.38l-.72-3.8c-.79-1.73,1.06-4.16-2.66-3.41l.63-.15C265,443.48,265,443.34,264.94,443.19Z"/><path class="cls-3" d="M279.42,440.71l.07-.08a53.38,53.38,0,0,0,6.32-1.43l.1,0c0,.14.1.28.14.43-2.18.69-2.26.61-2.08,2.28l1.95,1.68c1.14,2.08.5,6.58,4.84,6.25,8.28-.8,6.1-4.87,4.4-8.69-.23.05-1.59-2.83-1.74-3-.63-.33-.92-.06-2.17.21,0,0-.17-.43-.19-.47l.06-.1A38,38,0,0,0,296,436.4l.12,0,.16.4.36,0c-2.16.44-1.84,1.28-2.26,2.47.68.51,1.36,1,2.05,1.52a42.39,42.39,0,0,1,1.84,5.05c1,4.12-9,7.2-12.55,4.76-1.74-1.93-2.09-5.71-3-8.06-1.94-1.13-.84-1.93-3.57-1.26l.37-.14Z"/><path class="cls-3" d="M310.5,431.38l.14,0a26.92,26.92,0,0,0,1.23,2.59l-.19-.17-.53.21c0,.07,0,.15,0,.22-.38-.4-.82-1.39-1.29-1.51A26.65,26.65,0,0,0,305.5,434c.62,1.45.94,2.17.82,2.44.57,1.18,2.56,5.31,3.11,6.4,1.26,1.52,1,1.71,3.58.88l.21.4-.05.1c-4.38,1.51-2.25.75-6.56,2.34l-.12,0-.2-.42-.35.06c2.46-.65,1.88-1.44,2.22-2.72-.72-.43-1.44-.85-2.15-1.29q-1.12-2.41-2.23-4.83c.58-.3.21-1-.56-2.53a23.76,23.76,0,0,0-4.2,1.84,8.08,8.08,0,0,0,.37,1.78l-.18-.16-.54.17v.23q-.87-2-1.2-2.61a.61.61,0,0,1,.07-.1A125.59,125.59,0,0,0,310.5,431.38Z"/><path class="cls-3" d="M312.38,430.63a55,55,0,0,0,5.86-2.5l.12,0,.23.4a15.39,15.39,0,0,0-2,1.17,3.45,3.45,0,0,1-.71,1.93l2.27,1.31c.63,1.09,2.44,4.2,3.05,5.23.63,1.86,1.39,1.57,3.65.65l.24.39-.05.1c-2,.84-3.25,1.34-6.35,2.73l-.12,0-.23-.4-.69.22c2.35-.85,2.09-1.44,1.05-2.44.11-.74.22-1.48.32-2.22-.62-1.08-2.41-4.23-3-5.26-2.57-.49-1.36-1.7-4-.5l.59-.31-.22-.4Z"/><path class="cls-3" d="M322.48,433.48c-4.91-6.89,11-15.91,16.07-8.86C345.15,431.53,327,441.87,322.48,433.48Zm2-1.58c3.44,7,17.87,1.1,12.25-5.51C333.23,420.08,319.77,425.5,324.47,431.9Z"/><path class="cls-3" d="M344,429.53h-.15l-.27-.34c.5-.5,1.45-.84,1.63-1.34s-1.61-2.35-1.46-2.79c0,0-4.75-5.83-4.74-5.84-1-.54-1.68-.15-2.94.43l-.31-.41,0-.11a36.56,36.56,0,0,0,3.51-2.09,121.24,121.24,0,0,0,17.29,2.11c-.86-.85-5.28-5.59-6.2-6.25-1.26-1.51-1.63-1.22-3.4-.14l-.28-.32c1.31-1,3.81-2.76,5.21-3.7l.3.3c-.53.58-1.74,1.21-1.9,1.81s1.8,2.21,2.26,2.25c2.07,2.16,4.92,5.09,7.09,7.15-.45.18-1.18.54-2.2,1.05a158.05,158.05,0,0,1-18.51-2.15c1.58,2,3.17,4,4.79,5.91,2.09,0,2.05,3.14,4.65,1.12l-.05.12c.09.12.19.23.28.34l0,.11C347.39,427.34,345,428.84,344,429.53Z"/><path class="cls-3" d="M356.92,404.73c3.58-2.5,5-4.58,8.14-6.58,5.66-2.59,6.61,5,1.62,7.35l-.59-.24a.66.66,0,0,1,0-.14c6.55-4.17-1.77-8.59-5-2.54,1.63,2.67,4.38,4.95,6.69,6.91,2.23.2,1.83,1.27,3.87-.6l-.18.23.36.3v.11c-3.4,2.78-1.8,1.45-5.11,4.28h-.12l-.35-.32c2-1.8,1.76-2.11-.42-2.18l-.45-2.18q-1.63-1.45-3.24-2.92a12.73,12.73,0,0,0-2.66-1.93c-.8-.47-1.07.17-2.14.85h-.12l-.34-.32Z"/><path class="cls-3" d="M383.75,398c-1.42-.28-11-2.08-13-2.6-2-.32-1.47-.82-3,.45l-.14,0-.34-.28v-.12a45.75,45.75,0,0,0,4.34-4.25l.12,0,.51.38v.11c-2.62,2.1.26,1.81,1.69,2.38,0,.06,8.76,1.81,8.79,1.76-.84-1.62-3.2-6.2-4.21-7.72-1.1-1.72-1-2-2.73-.24l-.13,0-.46-.32v-.12a30.16,30.16,0,0,0,3.19-3.56l.13,0,.37.25v.11c-1.1,1.33-.38,1.1.19,2.63,1.21,2.09,4.37,8.46,5.52,10.23Z"/><path class="cls-3" d="M386.94,373.48l.14,0a26.44,26.44,0,0,0,2.54,1.52l-.25,0-.31.43.14.18c-.56-.15-1.51-.74-2-.61a23.78,23.78,0,0,0-2.87,3.17c1.37.88,2.07,1.32,1.92,1.87,1.17.69,5.3,3.09,6.41,3.72,2.14-.1,2,.93,3.57-1.25l-.08.2.43.22v.1c-2.7,3.38-1.4,1.72-4,5.13l-.12,0s-.46-.25-.44-.3c1.74-2,.93-2.29-.87-2-.3-.69-.61-1.37-.92-2q-2.4-1.41-4.77-2.83c-.28.19-1-.21-2.55-1.08a19.6,19.6,0,0,0-2.38,3.57c0,.19,1.07,1,1.37,1.28l-.25-.05-.34.4.14.19c-1.29-.81-2.14-1.33-2.56-1.54v-.13A101.56,101.56,0,0,0,386.94,373.48Z"/><path class="cls-3" d="M398.48,376.66c1-1.51,3.11-.48,2,1S397.4,378.15,398.48,376.66Z"/><path class="cls-3" d="M393.32,364.11c2-3.32,1.72-2.91,3.73-6.34l.43.18c-.72,1.57-2,3.21.46,2.88l2,.87,3.87,1.65c1.2,1.33,1.86,1.23,3.13,1.76,1.11-2.23,3.27-4.75,3.39-6.49a13.79,13.79,0,0,0-1.68-1.28c.1,0,.3-.51.35-.58v-.09a20.78,20.78,0,0,0,2.93,1.37l0,.11c-1.36,2.68-4,7.26-5.63,10.32l-.14.09-.29-.13c0-1.32.28-.89-1-1.6-2-1.14-4.32-2.13-6.2-3a11.83,11.83,0,0,0-3.54-1.19c-.55.24-.7.93-1.39,1.64Z"/><path class="cls-3" d="M404.85,341.25l.12-.07a26.66,26.66,0,0,0,2.78,1l-.25,0-.2.48.18.15c-.56,0-1.61-.42-2-.19a21.71,21.71,0,0,0-2,3.7c1.51.59,2.28.88,2.19,1.62,1.26.44,5.8,1.95,7,2.33,2.11-.89,2.2.43,3.18-2.14,0,.13-.06.27-.1.4l.46.14,0,.09c-1.76,3.86-.93,2-2.58,5.83l-.11.06-.45-.15c1-2.5.73-2.82-1.35-1.82l-1.37-1.81q-2.64-.89-5.23-1.8a10.41,10.41,0,0,1-2.61-.71,18.49,18.49,0,0,0-1.42,4,8.82,8.82,0,0,0,1.61,1h-.25l-.23.46.18.16c-1.43-.53-2.36-.87-2.82-1l0-.12A99.11,99.11,0,0,0,404.85,341.25Z"/><path class="cls-3" d="M404.93,341.22c1.56-3.59,2.66-8.22,4.35-11.46a6.3,6.3,0,0,1,11.86,2.11c.59,4-1.58,7.78-3,11.93l-.3-.08c1-2.32-3.13-2.22-3.92-2.42l-3.33-.94c-1.25-.1-2.87-1.46-4-1.24-.55.44-.86,1.61-1.24,2.24Zm13.65-1.42c6.83-12.42-9.8-16-11-3C411,338,414.89,339,418.58,339.8Z"/><path class="cls-3" d="M422.14,323.55c.37-1.75,2.64-1.4,2.21.37S421.69,325.3,422.14,323.55Z"/></g></g></svg>