<svg width="26" height="27" viewBox="0 0 26 27" fill="none" xmlns="http://www.w3.org/2000/svg">
    <path d="M15.6229 15.3257C15.6229 15.3257 15.7317 15.1904 15.9494 14.9197C16.1671 14.6489 16.3485 14.5136 16.4936 14.5136C16.6387 14.5136 17.1829 14.7592 18.1262 15.2504C19.0695 15.7415 19.5691 16.0374 19.6249 16.1378C19.6472 16.1937 19.6584 16.2774 19.6584 16.389C19.6584 16.7574 19.5635 17.1816 19.3737 17.6616C19.1951 18.097 18.7988 18.4626 18.1848 18.7584C17.5709 19.0542 17.0015 19.2021 16.4769 19.2021C15.8406 19.2021 14.7801 18.8561 13.2954 18.164C12.2014 17.6616 11.2525 17.003 10.4488 16.1881C9.645 15.3732 8.81892 14.3406 7.97052 13.0903C7.16677 11.8958 6.77048 10.813 6.78164 9.8418V9.70784C6.81513 8.69199 7.22817 7.81009 8.02076 7.06216C8.28867 6.81657 8.57892 6.69378 8.89149 6.69378C8.95846 6.69378 9.05893 6.70215 9.19289 6.71889C9.32685 6.73564 9.4329 6.74401 9.51104 6.74401C9.72314 6.74401 9.87106 6.78029 9.95478 6.85285C10.0385 6.92541 10.125 7.07891 10.2143 7.31333C10.3036 7.5366 10.4878 8.02778 10.7669 8.78687C11.046 9.54597 11.1855 9.96459 11.1855 10.0427C11.1855 10.2772 10.993 10.5981 10.6078 11.0056C10.2227 11.413 10.0301 11.6726 10.0301 11.7842C10.0301 11.8623 10.058 11.9461 10.1139 12.0354C10.4934 12.8503 11.0627 13.615 11.8218 14.3294C12.447 14.9211 13.2898 15.4848 14.3503 16.0206C14.4842 16.0988 14.607 16.1378 14.7187 16.1378C14.8861 16.1378 15.1875 15.8671 15.6229 15.3257ZM13.0944 23.3883C14.5122 23.3883 15.8713 23.1093 17.1718 22.5511C18.4723 21.9929 19.5914 21.245 20.5291 20.3073C21.4668 19.3696 22.2148 18.2505 22.7729 16.95C23.3311 15.6494 23.6102 14.2903 23.6102 12.8726C23.6102 11.4549 23.3311 10.0958 22.7729 8.79525C22.2148 7.49473 21.4668 6.37562 20.5291 5.43792C19.5914 4.50021 18.4723 3.75227 17.1718 3.19411C15.8713 2.63595 14.5122 2.35687 13.0944 2.35687C11.6767 2.35687 10.3176 2.63595 9.01707 3.19411C7.71656 3.75227 6.59745 4.50021 5.65974 5.43792C4.72203 6.37562 3.9741 7.49473 3.41594 8.79525C2.85778 10.0958 2.5787 11.4549 2.5787 12.8726C2.5787 15.1387 3.24849 17.1928 4.58807 19.0347L3.26523 22.9362L7.31747 21.6469C9.08126 22.8078 11.0069 23.3883 13.0944 23.3883ZM8.19658 1.25172C8.19658 1.25172 8.58589 1.08427 9.36452 0.749374C10.1432 0.414478 11.3865 0.24703 13.0944 0.24703C14.8024 0.24703 16.435 0.581926 17.9923 1.25172C19.5495 1.92151 20.8919 2.82015 22.0194 3.94763C23.1469 5.07511 24.0455 6.41749 24.7153 7.97475C25.3851 9.53202 25.72 11.1646 25.72 12.8726C25.72 14.5806 25.3851 16.2132 24.7153 17.7705C24.0455 19.3277 23.1469 20.6701 22.0194 21.7976C20.8919 22.9251 19.5495 23.8237 17.9923 24.4935C16.435 25.1633 14.8024 25.4982 13.0944 25.4982C10.9176 25.4982 8.88032 24.9735 6.98258 23.9242L0 26.168L2.27729 19.3863C1.07167 17.3993 0.468854 15.228 0.468854 12.8726C0.468854 11.1646 0.80375 9.53202 1.47354 7.97475C2.14333 6.41749 3.04197 5.07511 4.16945 3.94763C5.29694 2.82015 6.63931 1.92151 8.19658 1.25172Z" fill="#11DD0C"/>
    </svg>
    